<?xml version="1.0" encoding="UTF-8" standalone="no"?>
<svg
   width="128.00002"
   height="127.99999"
   viewBox="0 0 128.00002 127.99999"
   fill="none"
   version="1.1"
   id="svg5"
   sodipodi:docname="Element Logomark.svg"
   xml:space="preserve"
   inkscape:version="1.4.2 (ebf0e940d0, 2025-05-08)"
   xmlns:inkscape="http://www.inkscape.org/namespaces/inkscape"
   xmlns:sodipodi="http://sodipodi.sourceforge.net/DTD/sodipodi-0.dtd"
   xmlns="http://www.w3.org/2000/svg"
   xmlns:svg="http://www.w3.org/2000/svg"><defs
     id="defs5" /><sodipodi:namedview
     id="namedview5"
     pagecolor="#ffffff"
     bordercolor="#666666"
     borderopacity="1.0"
     inkscape:showpageshadow="2"
     inkscape:pageopacity="0.0"
     inkscape:pagecheckerboard="0"
     inkscape:deskcolor="#d1d1d1"
     inkscape:zoom="2.2390181"
     inkscape:cx="64.090593"
     inkscape:cy="63.867281"
     inkscape:window-width="1440"
     inkscape:window-height="891"
     inkscape:window-x="0"
     inkscape:window-y="0"
     inkscape:window-maximized="1"
     inkscape:current-layer="svg5"><inkscape:page
       x="0"
       y="0"
       width="128.00002"
       height="127.99999"
       id="page6"
       margin="0"
       bleed="0" /></sodipodi:namedview><path
     fill-rule="evenodd"
     clip-rule="evenodd"
     d="m 64.095475,122.65198 c 32.59115,0 59.011595,-26.420445 59.011595,-59.011603 0,-32.591156 -26.420445,-59.011598 -59.011595,-59.011598 -32.59116,0 -59.0116005,26.420442 -59.0116005,59.011598 0,32.591158 26.4204405,59.011603 59.0116005,59.011603 z"
     fill="#0dbd8b"
     id="path1"
     style="stroke-width:1.05378" /><path
     fill-rule="evenodd"
     clip-rule="evenodd"
     d="m 53.306245,32.125023 c 0,-2.381961 1.93506,-4.313011 4.32198,-4.313011 16.17823,0 29.29325,13.087824 29.29325,29.232344 0,2.382067 -1.93506,4.31301 -4.32198,4.31301 -2.38701,0 -4.32196,-1.930943 -4.32196,-4.31301 0,-11.380598 -9.24501,-20.606324 -20.64931,-20.606324 -2.38692,0 -4.32198,-1.931049 -4.32198,-4.313009 z"
     fill="#ffffff"
     id="path2"
     style="stroke-width:1.05378" /><path
     fill-rule="evenodd"
     clip-rule="evenodd"
     d="m 95.601875,52.731347 c 2.38701,0 4.32197,1.930943 4.32197,4.313009 0,16.14452 -13.11501,29.232344 -29.29316,29.232344 -2.38691,0 -4.32196,-1.931049 -4.32196,-4.31301 0,-2.381962 1.93505,-4.313011 4.32196,-4.313011 11.4042,0 20.64921,-9.225726 20.64921,-20.606323 0,-2.382066 1.93506,-4.313009 4.32198,-4.313009 z"
     fill="#ffffff"
     id="path3"
     style="stroke-width:1.05378" /><path
     fill-rule="evenodd"
     clip-rule="evenodd"
     d="m 74.952655,95.155733 c 0,2.382069 -1.93495,4.313005 -4.32197,4.313005 -16.17813,0 -29.29313,-13.087714 -29.29313,-29.232339 0,-2.381961 1.93504,-4.31301 4.32196,-4.31301 2.38691,0 4.32197,1.931049 4.32197,4.31301 0,11.380598 9.24501,20.606428 20.6492,20.606428 2.38702,0 4.32197,1.930944 4.32197,4.312906 z"
     fill="#ffffff"
     id="path4"
     style="stroke-width:1.05378" /><path
     fill-rule="evenodd"
     clip-rule="evenodd"
     d="m 32.588965,74.549514 c -2.38691,0 -4.32197,-1.931048 -4.32197,-4.31301 0,-16.144624 13.11502,-29.232343 29.29316,-29.232343 2.3869,0 4.32196,1.930944 4.32196,4.312905 0,2.382065 -1.93506,4.313009 -4.32196,4.313009 -11.40422,0 -20.64922,9.225832 -20.64922,20.606429 0,2.381962 -1.93505,4.31301 -4.32197,4.31301 z"
     fill="#ffffff"
     id="path5"
     style="stroke-width:1.05378" /></svg>
